
<svg xmlns="http://www.w3.org/2000/svg" width="200" height="200" viewBox="0 0 200 200">
  <g xmlns="http://www.w3.org/2000/svg" stroke="#E8DABC" stroke-width="0.580868235102904" stroke-linecap="butt" opacity="0.30">
      <path d="M0 107 H200  M0 152 H200  M0 26 H200 "/>
  </g>

  <g xmlns="http://www.w3.org/2000/svg" stroke="#DCB988" stroke-width="0.580868235102904" stroke-linecap="butt" opacity="0.30">
      <path d="M0 78 H200  M0 152 H200  M0 44 H200 "/>
  </g>
<g xmlns="http://www.w3.org/2000/svg" stroke="#dca5b6" stroke-width="0.7537602003186621" stroke-linecap="butt" opacity="0.18">
      <path d="M0 8 H200  M0 144 H200  M0 101 H200  M0 172 H200   M0 132 H200 M0 192 H200 M0 19 H200  M0 117 H200"/>
  </g>
<g xmlns="http://www.w3.org/2000/svg" stroke="#EDB870" stroke-width="0.9594346287252411" stroke-linecap="butt" opacity="0.23">
      <path d="M0 92 H200    M0 60 H200    M0 159 H200    M0 52 H200 M0 35 H200 "/>
  </g>
  <g xmlns="http://www.w3.org/2000/svg" stroke="#c6b298" stroke-width="0.9448474097279813" stroke-linecap="butt" opacity="0.14">
    <path d="M46 123 V55  M72 63 V197  M116 17 V139  M16 135 V134  M62 102 V197  M22 114 V22 "/>
</g>


<g xmlns="http://www.w3.org/2000/svg" stroke="#c6b298" stroke-width="0.7652922036674541" stroke-linecap="butt" opacity="0.29">
    <path d="M88 167 V128 M135 145 V172 "/>
</g>
<g xmlns="http://www.w3.org/2000/svg" stroke="#EDB870" stroke-width="0.7064846489718318" stroke-linecap="butt" opacity="0.27">
    <path d="M98 108 V196  M169 82 V101"/>
</g>

<g xmlns="http://www.w3.org/2000/svg" stroke="#E7D19E" stroke-width="0.9594346287252411" stroke-linecap="butt" opacity="0.28">
  <path d="M181 65 V144 M196 12 43 "/>
</g>

<g xmlns="http://www.w3.org/2000/svg" stroke="#dca5b6" stroke-width="0.9925477957379777" stroke-linecap="butt" opacity="0.30">
    <path d="M28 154 V182  M175 172 V181"/>
</g>
<g xmlns="http://www.w3.org/2000/svg" stroke="#D5BFA4" stroke-width="0.695415298420917" stroke-linecap="butt" opacity="0.27">
    <path d="M17 161 V74  M29 71 V42 "/>
</g>

<g xmlns="http://www.w3.org/2000/svg" stroke="#D5BFA4" stroke-width="0.695415298420917" stroke-linecap="butt" opacity="0.27">
  <path d="M161 65 V143  M183 32 V54  M92 27 V111"/>
</g>

<g xmlns="http://www.w3.org/2000/svg" stroke="#D5BFA4" stroke-width="0.581404199914241" stroke-linecap="butt" opacity="0.29">
  <path d="M43 0 V1  M43 165 V200  M19 0 V49  M19 191 V200 "/>
</g>
<g xmlns="http://www.w3.org/2000/svg" stroke="#E7D19E" stroke-width="0.9770607584183042" stroke-linecap="butt" opacity="0.20">
  <path d="M153 0 V48  M153 194 V200 "/>
</g>
<g xmlns="http://www.w3.org/2000/svg" stroke="#c6b298" stroke-width="1.00515013488051" stroke-linecap="butt" opacity="0.15">
  <path d="M146 0 V8  M146 167 V200 "/>
</g>
<g xmlns="http://www.w3.org/2000/svg" stroke="#c6b298" stroke-width="0.5103789843250175" stroke-linecap="butt" opacity="0.29">
  <path d="M133 0 V1  M133 197 V200 "/>
</g>
<g xmlns="http://www.w3.org/2000/svg" stroke="#D5BFA4" stroke-width="0.7507203928599213" stroke-linecap="butt" opacity="0.28">
  <path d="M86 0 V24  M86 191 V200 "/>
</g>
<g xmlns="http://www.w3.org/2000/svg" stroke="#D5BFA4" stroke-width="0.5161911190420831" stroke-linecap="butt" opacity="0.27">
  <path d="M84 0 V25  M84 179 V200 "/>
</g>
</svg>
